<svg xmlns="http://www.w3.org/2000/svg" xmlns:xlink="http://www.w3.org/1999/xlink" version="1.1" width="75" height="75" viewBox="0 0 256 256" xml:space="preserve">
<defs>
</defs>
<g style="stroke: none; stroke-width: 0; stroke-dasharray: none; stroke-linecap: butt; stroke-linejoin: miter; stroke-miterlimit: 10; fill: none; fill-rule: nonzero; opacity: 1;" transform="translate(1.4065934065934016 1.4065934065934016) scale(2.81 2.81)" >
	<path d="M 45 74.04 c -5.114 0 -9.275 -4.161 -9.275 -9.275 s 4.161 -9.275 9.275 -9.275 s 9.275 4.161 9.275 9.275 S 50.114 74.04 45 74.04 z M 45 57.489 c -4.012 0 -7.275 3.264 -7.275 7.275 S 40.988 72.04 45 72.04 s 7.275 -3.264 7.275 -7.275 S 49.012 57.489 45 57.489 z" style="stroke: none; stroke-width: 1; stroke-dasharray: none; stroke-linecap: butt; stroke-linejoin: miter; stroke-miterlimit: 10; fill: rgb(0,0,0); fill-rule: nonzero; opacity: 1;" transform=" matrix(1 0 0 1 0 0) " stroke-linecap="round" />
	<path d="M 62.579 50.148 c -0.326 -5.654 -3.396 -10.878 -8.211 -13.911 l -3.325 -27.68 h 0.122 c 1.631 0 2.958 -1.327 2.958 -2.958 C 54.123 2.512 51.611 0 48.524 0 h -7.049 c -3.087 0 -5.599 2.512 -5.599 5.599 c 0 1.631 1.327 2.958 2.958 2.958 h 0.121 l -3.325 27.68 c -4.814 3.033 -7.884 8.257 -8.211 13.911 h -0.032 v 1 v 28.232 v 4.545 c 0 3.35 2.725 6.074 6.075 6.074 h 23.074 c 3.35 0 6.074 -2.725 6.074 -6.074 v -4.545 V 51.148 v -1 H 62.579 z M 60.611 52.148 v 25.232 H 29.389 V 52.148 H 60.611 z M 38.835 6.557 c -0.528 0 -0.958 -0.43 -0.958 -0.958 C 37.877 3.614 39.491 2 41.476 2 h 7.049 c 1.984 0 3.599 1.614 3.599 3.599 c 0 0.528 -0.43 0.958 -0.958 0.958 h -1.249 h -1.127 h -7.578 h -1.127 H 38.835 z M 40.971 8.557 h 8.058 l 2.509 20.883 H 38.463 L 40.971 8.557 z M 37.075 37.699 l 0.426 -0.251 l 0.722 -6.008 h 13.556 l 0.722 6.008 l 0.425 0.251 c 4.452 2.63 7.32 7.335 7.653 12.449 H 29.422 C 29.755 45.034 32.623 40.329 37.075 37.699 z M 60.611 83.926 c 0 2.246 -1.828 4.074 -4.074 4.074 H 33.463 c -2.247 0 -4.075 -1.828 -4.075 -4.074 v -4.545 h 31.223 V 83.926 z" style="stroke: none; stroke-width: 1; stroke-dasharray: none; stroke-linecap: butt; stroke-linejoin: miter; stroke-miterlimit: 10; fill: rgb(0,0,0); fill-rule: nonzero; opacity: 1;" transform=" matrix(1 0 0 1 0 0) " stroke-linecap="round" />
</g>
</svg>