<svg width="30" height="25" viewBox="0 0 54 47" fill="none" xmlns="http://www.w3.org/2000/svg">
<path d="M30.0925 0C17.9143 0 7.88347 9.36162 6.81372 21.2659L2.13397 16.586C1.64584 16.0979 0.854344 16.0979 0.366094 16.586C-0.122031 17.0741 -0.122031 17.8656 0.366094 18.3539L7.08359 25.0714C7.32772 25.3154 7.64759 25.4375 7.96747 25.4375C8.28734 25.4375 8.60734 25.3154 8.85134 25.0714L15.5688 18.3539C16.057 17.8657 16.057 17.0743 15.5688 16.586C15.0807 16.0979 14.2892 16.0979 13.801 16.586L9.34884 21.0381C10.5145 10.6237 19.372 2.5 30.0925 2.5C41.603 2.5 50.9675 11.8645 50.9675 23.375C50.9675 34.8855 41.603 44.25 30.0925 44.25C24.6103 44.25 19.4315 42.1411 15.5098 38.3119C15.0158 37.8298 14.2245 37.8391 13.7422 38.333C13.26 38.8269 13.2693 39.6184 13.7632 40.1007C18.1546 44.3886 23.9537 46.75 30.0925 46.75C42.9815 46.75 53.4675 36.264 53.4675 23.375C53.4675 10.486 42.9815 0 30.0925 0Z" fill="black"/>
<path d="M30.0925 8.07471C29.4022 8.07471 28.8425 8.63433 28.8425 9.32471V23.3751C28.8425 24.0653 29.4022 24.6251 30.0925 24.6251H39.9943C40.6846 24.6251 41.2443 24.0653 41.2443 23.3751C41.2443 22.6847 40.6846 22.1251 39.9943 22.1251H31.3425V9.32471C31.3425 8.63433 30.7827 8.07471 30.0925 8.07471Z" fill="black"/>
</svg>
